<?xml version="1.0" encoding="utf-8"?>
<!-- Generator: Adobe Illustrator 24.1.1, SVG Export Plug-In . SVG Version: 6.00 Build 0)  -->
<svg version="1.1" id="Ebene_1" xmlns="http://www.w3.org/2000/svg" xmlns:xlink="http://www.w3.org/1999/xlink" x="0px" y="0px"
	 viewBox="0 0 502 152" style="enable-background:new 0 0 502 152;" xml:space="preserve">
<style type="text/css">
	.st0{display:none;}
	.st1{fill:#FFFFFF;}
</style>
<rect class="st0" width="502" height="152"/>
<g>
	<g>
		<path class="st1" d="M81.1,61.6c0.6-22.6,7.3-42,20.4-59.1c1.7-2.3,2.9-1.7,4.4,0.1c6.6,8.1,11.6,17.2,15,27.1
			c5.5,15.8,7.1,32,3.5,48.4c-2.5,11.4-7.7,21.4-17.2,28.8c-2.4,1.9-4.3,2-6.8,0c-12.1-9.5-16.9-22.5-18.7-37.1
			C81.4,66.6,81.3,63.6,81.1,61.6z"/>
		<path class="st1" d="M180.4,34.5c-1.6,13.3-5.5,25-11.6,35.9c-6.6,11.9-15.4,21.9-26.6,29.7c-8,5.6-16.7,9-26.5,9.9
			c-0.8,0.1-1.8,0.4-2.2-0.6c-0.4-0.9,0.6-1.5,1.1-2c9.2-9,13.9-20.3,16-32.8c1-6.1,1.4-12.3,0.6-18.3c-0.7-5,1.6-7.7,5.4-9.9
			c11.6-6.8,23.7-12.1,37.1-14c1.2-0.2,2.3-0.2,3.5-0.3C179.8,31.7,180.7,33,180.4,34.5z"/>
		<path class="st1" d="M76.2,53.5c-0.8,11.3,0.1,22.3,3.8,33.1c2.6,7.6,6.5,14.4,12.1,20.1c0.8,0.8,2.6,1.5,1.8,3
			c-0.6,1.1-2.2,0.4-3.3,0.3c-17.1-2-29.8-11.5-40.8-23.9C39.2,74,32.5,60,28.9,44.5c-0.7-3-0.9-6-1.4-9.1c-0.4-2.6,0.7-3.4,3.1-3.3
			c6.4,0.4,12.5,2.2,18.6,4.1c8.6,2.7,16.5,6.9,23.9,11.9C75,49.4,77.1,50.6,76.2,53.5z"/>
		<path class="st1" d="M91,116.4c-4.7,2-9.6,2.9-14.6,3c-20.2,0.5-37.7-6.7-53.7-18.5C14.6,95,8.1,87.4,2.1,79.4
			c-1.5-2-1.7-3.2,1.1-4.3c8.4-3.2,17.1-5.1,26.1-6.1c2.4-0.3,3.3,1.3,4.2,3c6,10.9,13.8,20.5,23.5,28.4
			c9.4,7.8,19.8,13.5,32.3,14.7C89.9,115.2,90.6,115.2,91,116.4z"/>
		<path class="st1" d="M116.8,116.1c3.6-1.4,7.5-1.7,11.2-2.8c12.2-3.9,22.1-11.2,30.9-20.3c6.1-6.3,11.1-13.4,15.2-21.1
			c1.2-2.2,2.6-3,5.1-2.8c8.4,0.8,16.5,2.7,24.3,5.7c3.7,1.4,3.9,1.9,1.6,5.2c-15.8,21.9-36.8,35.4-63.6,39.2
			C133.1,120.3,124.8,119.7,116.8,116.1z"/>
		<path class="st1" d="M151.5,30.2c0.4,1.6-0.9,3.1-3.3,4.1c-5.3,2.3-10.3,5.2-15.2,8.3c-1.9,1.3-2.9,0.9-3.4-1.4
			c-1.1-4.8-2.1-9.7-4.1-14.3c-0.7-1.7-0.3-2.9,1.1-4c5.7-4.9,12-9.1,18.7-12.6c1.9-1,2.5-0.1,3,1.5
			C149.9,17.4,150.8,23.3,151.5,30.2z"/>
		<path class="st1" d="M56.3,26.9c0.2-4,1.6-9.5,2.9-15c0.4-1.8,1.5-2.3,3.1-1.5c6.8,3.4,12.9,7.7,18.7,12.7c1.1,1,1.4,2,1,3.4
			c-1.4,4.8-2.9,9.7-4.1,14.6c-0.7,2.6-1.8,2.6-3.7,1.2c-4.5-3.3-9.6-5.5-14.5-8C56.1,32.6,56.1,32.7,56.3,26.9z"/>
	</g>
	<g>
		<path class="st1" d="M384.2,121.2c-1.7,3.4-3.7,6.3-4.5,9.5c-0.8,3.1,0.7,6.1,3.6,7.8c3,1.8,6.1,1.1,8.6-0.7
			c2-1.4,3.9-3.3,5.3-5.4c6.2-9.6,7.5-20.5,8.6-31.9c-3.6,3.3-6.5,6.7-10,9.2c-11.1,8.1-24.4,4.3-29.5-8.2
			c-7.7-18.9,2.7-52.2,30.2-57c3.3-0.6,6.9-0.8,10.2-0.4c2,0.2,3.8,1.8,6.2,3.1c2.4-5.9,7.5-9.9,14.4-11.4c0.2,0.3,0.5,0.5,0.5,0.7
			c-1.3,19.7-2.3,39.3-4,59c-1.1,12.4-4,24.6-9.8,35.9c-5.4,10.4-13.4,17.7-25.3,19.3c-4.4,0.6-9.3,0.6-13.5-0.5
			c-3.6-0.9-7.1-3.4-9.7-6.1c-5-5.1-5.3-12.8-1.7-18.3c3.4-5.2,10.2-7.5,16.9-5.7C382.1,120.3,383.5,120.9,384.2,121.2z M411.6,51.8
			c-1.5,0.2-2,0.3-2.4,0.4c-15.9,4.2-27.8,24.5-23.9,40.6c1.5,6.3,7.2,8.3,11.6,3.5c3.1-3.5,5.9-7.9,7.2-12.3
			C407.1,73.6,409.1,63,411.6,51.8z"/>
		<path class="st1" d="M500.4,117.3c-11.9-1.4-19.8-6.2-21.3-18.3c-3.8,3.6-7.1,7.2-10.9,10.1c-2.8,2.1-6.2,3.6-9.5,4.5
			c-9.1,2.5-17.4-1.8-21.1-10.6c-7.2-17,2.7-46,18.8-55c7.4-4.1,12.7-4.4,24.2-1.1c-0.4-3.4,1.9-3.7,4.4-3.7c1.1,0,2.3-0.1,3.4,0
			c9.6,0.4,13.6,5.2,12.3,14.6c-1.4,9.8-3.2,19.6-4.5,29.4C494.9,97.5,494.7,107.5,500.4,117.3z M481.2,49.8
			c-3.9,2.4-7.3,3.8-9.9,6.2C461,65.3,456,77,456,90.8c0,1.4,0.3,2.8,0.7,4.1c1.5,4.9,5.1,6.4,9.4,3.6c2.2-1.4,4.2-3.4,5.6-5.5
			C480.3,80.3,482.4,66.1,481.2,49.8z"/>
		<path class="st1" d="M327.2,45.6c1.5-0.6,2.8-1.1,4.1-1.5c12.7-3.6,20.6,2.7,23.7,13.4c4.3,15,1.6,29.3-6.8,42.3
			c-5.8,9.2-14.5,13.9-25.3,14.8c-10.6,0.9-18.9-3.4-24.5-12.3c-11.2-17.8-3.2-48.4,15.1-58.4c1.5-0.8,3.2-1.6,4.9-2.1
			C323,40.2,324.7,40.9,327.2,45.6z M338.7,72.2c-0.2-2.5-0.2-5.1-0.6-7.6c-0.6-3.8-1-8.1-5.4-9.3c-4.5-1.3-7.6,1.7-10.5,4.7
			c-0.1,0.1-0.2,0.2-0.3,0.3c-8.3,10.9-10.4,23-6.7,36c2.2,7.5,9.3,9,14.7,3.3c1.5-1.6,2.8-3.6,3.8-5.6
			C337.3,87.1,338.6,79.8,338.7,72.2z"/>
		<path class="st1" d="M222.7,20.8c4.8-4.2,10.4-5,16.2-4c4.4,0.7,7.3,3.9,8.7,7.8c2.6,7.7,4.9,15.5,7,23.3c1.4,5,2.3,10.1,3.9,15.2
			c10-15.9,19-32.1,22.9-50.6c9.9,3.6,14.4,12.4,9.5,21.5c-7.5,13.8-16,27.1-24.3,40.5c-2,3.2-3.6,6.3-3.7,10.1
			c-0.1,4.3-1,8.6-1,12.9c0.1,6.4,0.7,12.8,1.1,19.2c-11.8,0-20.3-8.7-19.9-21.2c0.1-2.2,0-4.4,0.4-6.5c1.7-7.2,0.5-14.1-2-20.9
			c-4.9-13.4-9.7-26.7-14.7-40.1C225.7,25.6,224.1,23.3,222.7,20.8z"/>
	</g>
</g>
</svg>
